GSerif01-TextRegular05.ufo
<glyph name="seven" format="1">
  <advance width="522"/>
  <unicode hex="0037"/>
  <outline>
    <contour>
      <point x="111" y="0" type="line"/>
      <point x="300" y="260"/>
      <point x="431" y="452"/>
      <point x="431" y="669" type="curve"/>
      <point x="447" y="636" type="line"/>
      <point x="85" y="636" type="line"/>
      <point x="90" y="665" type="line"/>
      <point x="90" y="504" type="line"/>
      <point x="41" y="504" type="line"/>
      <point x="41" y="710" type="line"/>
      <point x="483" y="710" type="line"/>
      <point x="483" y="673" type="line" smooth="yes"/>
      <point x="483" y="435"/>
      <point x="385" y="248"/>
      <point x="225" y="0" type="curve"/>
    </contour>
  </outline>
</glyph>
<glyph name="J" format="1">
  <advance width="514"/>
  <unicode hex="004A"/>
  <outline>
    <contour>
      <point x="39" y="7" type="line"/>
      <point x="70" y="-3"/>
      <point x="111" y="-10"/>
      <point x="160" y="-10" type="curve" smooth="yes"/>
      <point x="292" y="-10"/>
      <point x="379" y="58"/>
      <point x="379" y="247" type="curve" smooth="yes"/>
      <point x="379" y="710" type="line"/>
      <point x="286" y="710" type="line"/>
      <point x="286" y="247" type="line" smooth="yes"/>
      <point x="286" y="80"/>
      <point x="241" y="35"/>
      <point x="161" y="35" type="curve" smooth="yes"/>
      <point x="120" y="35"/>
      <point x="83" y="43"/>
      <point x="39" y="59" type="curve"/>
    </contour>
    <contour>
      <point x="379" y="640" type="line"/>
      <point x="379" y="669"/>
      <point x="417" y="676"/>
      <point x="462" y="676" type="curve" smooth="yes"/>
      <point x="470" y="676" type="line"/>
      <point x="470" y="710" type="line"/>
      <point x="183" y="710" type="line"/>
      <point x="183" y="676" type="line"/>
      <point x="201" y="676" type="line" smooth="yes"/>
      <point x="249" y="676"/>
      <point x="286" y="669"/>
      <point x="286" y="640" type="curve"/>
    </contour>
  </outline>
</glyph>
<glyph name="M" format="1">
  <advance width="941"/>
  <unicode hex="004D"/>
  <outline>
    <contour>
      <point x="800" y="0" type="line"/>
      <point x="800" y="640" type="line"/>
      <point x="800" y="669"/>
      <point x="837" y="676"/>
      <point x="882" y="676" type="curve"/>
      <point x="890" y="676" type="line"/>
      <point x="890" y="710" type="line"/>
      <point x="670" y="710" type="line"/>
      <point x="449" y="39" type="line"/>
      <point x="483" y="61" type="line"/>
      <point x="275" y="710" type="line"/>
      <point x="50" y="710" type="line"/>
      <point x="50" y="676" type="line"/>
      <point x="61" y="676" type="line"/>
      <point x="104" y="676"/>
      <point x="141" y="669"/>
      <point x="141" y="640" type="curve"/>
      <point x="141" y="0" type="line"/>
      <point x="191" y="0" type="line"/>
      <point x="191" y="701" type="line"/>
      <point x="186" y="685" type="line"/>
      <point x="420" y="-2" type="line"/>
      <point x="480" y="-2" type="line"/>
      <point x="715" y="688" type="line"/>
      <point x="709" y="701" type="line"/>
      <point x="709" y="0" type="line"/>
    </contour>
    <contour>
      <point x="890" y="0" type="line"/>
      <point x="890" y="34" type="line"/>
      <point x="882" y="34" type="line"/>
      <point x="836" y="34"/>
      <point x="800" y="41"/>
      <point x="800" y="70" type="curve"/>
      <point x="712" y="44" type="line"/>
      <point x="701" y="37"/>
      <point x="666" y="34"/>
      <point x="633" y="34" type="curve"/>
      <point x="623" y="34" type="line"/>
      <point x="623" y="0" type="line"/>
    </contour>
    <contour>
      <point x="50" y="0" type="line"/>
      <point x="280" y="0" type="line"/>
      <point x="280" y="34" type="line"/>
      <point x="269" y="34" type="line"/>
      <point x="230" y="35"/>
      <point x="191" y="39"/>
      <point x="191" y="58" type="curve"/>
      <point x="141" y="86" type="line"/>
      <point x="141" y="47"/>
      <point x="104" y="34"/>
      <point x="61" y="34" type="curve"/>
      <point x="50" y="34" type="line"/>
    </contour>
  </outline>
</glyph>
<glyph name="R" format="1">
  <advance width="699"/>
  <unicode hex="0052"/>
  <outline>
    <contour>
      <point x="146" y="0" type="line"/>
      <point x="239" y="0" type="line"/>
      <point x="239" y="710" type="line"/>
      <point x="146" y="710" type="line"/>
    </contour>
    <contour>
      <point x="361" y="322" type="line"/>
      <point x="527" y="0" type="line"/>
      <point x="629" y="0" type="line"/>
      <point x="622" y="24" type="line"/>
      <point x="449" y="337" type="line"/>
    </contour>
    <contour>
      <point x="677" y="0" type="line"/>
      <point x="677" y="34" type="line"/>
      <point x="671" y="34" type="line"/>
      <point x="633" y="34"/>
      <point x="614" y="38"/>
      <point x="595" y="72" type="curve"/>
      <point x="587" y="0" type="line"/>
    </contour>
    <contour>
      <point x="195" y="666" type="line"/>
      <point x="337" y="666" type="line" smooth="yes"/>
      <point x="445" y="666"/>
      <point x="499" y="605"/>
      <point x="499" y="509" type="curve" smooth="yes"/>
      <point x="499" y="411"/>
      <point x="450" y="351"/>
      <point x="333" y="351" type="curve" smooth="yes"/>
      <point x="195" y="351" type="line"/>
      <point x="195" y="309" type="line"/>
      <point x="333" y="309" type="line" smooth="yes"/>
      <point x="494" y="309"/>
      <point x="597" y="388"/>
      <point x="597" y="509" type="curve" smooth="yes"/>
      <point x="597" y="629"/>
      <point x="500" y="710"/>
      <point x="339" y="710" type="curve" smooth="yes"/>
      <point x="56" y="710" type="line"/>
      <point x="56" y="676" type="line"/>
      <point x="64" y="676" type="line"/>
      <point x="109" y="676"/>
      <point x="146" y="669"/>
      <point x="146" y="640" type="curve"/>
    </contour>
    <contour>
      <point x="56" y="0" type="line"/>
      <point x="329" y="0" type="line"/>
      <point x="329" y="34" type="line"/>
      <point x="319" y="34" type="line" smooth="yes"/>
      <point x="283" y="34"/>
      <point x="239" y="37"/>
      <point x="239" y="44" type="curve"/>
      <point x="146" y="70" type="line"/>
      <point x="146" y="41"/>
      <point x="110" y="34"/>
      <point x="64" y="34" type="curve" smooth="yes"/>
      <point x="56" y="34" type="line"/>
    </contour>
  </outline>
</glyph>
<glyph name="Y" format="1">
  <advance width="651"/>
  <unicode hex="0059"/>
  <outline>
    <contour>
      <point x="284" y="0" type="line"/>
      <point x="377" y="0" type="line"/>
      <point x="377" y="329" type="line"/>
      <point x="284" y="329" type="line"/>
    </contour>
    <contour>
      <point x="596" y="708" type="line"/>
      <point x="544" y="710" type="line"/>
      <point x="331" y="318" type="line"/>
      <point x="364" y="337" type="line"/>
      <point x="143" y="710" type="line"/>
      <point x="51" y="708" type="line"/>
      <point x="302" y="282" type="line"/>
      <point x="360" y="280" type="line"/>
    </contour>
    <contour>
      <point x="632" y="710" type="line"/>
      <point x="417" y="710" type="line"/>
      <point x="417" y="676" type="line"/>
      <point x="440" y="676" type="line" smooth="yes"/>
      <point x="488" y="676"/>
      <point x="515" y="667"/>
      <point x="515" y="655" type="curve"/>
      <point x="546" y="618" type="line"/>
      <point x="572" y="663"/>
      <point x="597" y="676"/>
      <point x="626" y="676" type="curve" smooth="yes"/>
      <point x="632" y="676" type="line"/>
    </contour>
    <contour>
      <point x="18" y="710" type="line"/>
      <point x="18" y="676" type="line"/>
      <point x="23" y="676" type="line" smooth="yes"/>
      <point x="51" y="676"/>
      <point x="71" y="673"/>
      <point x="90" y="642" type="curve"/>
      <point x="170" y="664" type="line"/>
      <point x="170" y="673"/>
      <point x="213" y="676"/>
      <point x="249" y="676" type="curve" smooth="yes"/>
      <point x="266" y="676" type="line"/>
      <point x="266" y="710" type="line"/>
    </contour>
    <contour>
      <point x="186" y="0" type="line"/>
      <point x="475" y="0" type="line"/>
      <point x="475" y="34" type="line"/>
      <point x="459" y="34" type="line" smooth="yes"/>
      <point x="414" y="34"/>
      <point x="377" y="41"/>
      <point x="377" y="70" type="curve"/>
      <point x="284" y="70" type="line"/>
      <point x="284" y="41"/>
      <point x="247" y="34"/>
      <point x="202" y="34" type="curve" smooth="yes"/>
      <point x="186" y="34" type="line"/>
    </contour>
  </outline>
</glyph>
<glyph name="Z" format="1">
  <advance width="630"/>
  <unicode hex="005A"/>
  <outline>
    <contour>
      <point x="106" y="44" type="line"/>
      <point x="127" y="18" type="line"/>
      <point x="568" y="657" type="line"/>
      <point x="568" y="710" type="line"/>
      <point x="68" y="710" type="line"/>
      <point x="68" y="523" type="line"/>
      <point x="106" y="523" type="line"/>
      <point x="121" y="616" type="line" smooth="yes"/>
      <point x="128" y="655"/>
      <point x="161" y="666"/>
      <point x="247" y="666" type="curve" smooth="yes"/>
      <point x="507" y="666" type="line"/>
      <point x="483" y="682" type="line"/>
      <point x="52" y="56" type="line"/>
      <point x="52" y="0" type="line"/>
      <point x="575" y="0" type="line"/>
      <point x="575" y="211" type="line"/>
      <point x="535" y="211" type="line"/>
      <point x="520" y="96" type="line" smooth="yes"/>
      <point x="515" y="55"/>
      <point x="480" y="44"/>
      <point x="394" y="44" type="curve" smooth="yes"/>
    </contour>
  </outline>
</glyph>
<glyph name="e" format="1">
  <advance width="581"/>
  <unicode hex="0065"/>
  <outline>
    <contour>
      <point x="322" y="-12" type="curve" smooth="yes"/>
      <point x="422" y="-12"/>
      <point x="494" y="34"/>
      <point x="532" y="104" type="curve"/>
      <point x="495" y="131" type="line"/>
      <point x="463" y="79"/>
      <point x="413" y="33"/>
      <point x="327" y="33" type="curve" smooth="yes"/>
      <point x="224" y="33"/>
      <point x="142" y="116"/>
      <point x="142" y="264" type="curve" smooth="yes"/>
      <point x="142" y="413"/>
      <point x="214" y="505"/>
      <point x="302" y="505" type="curve"/>
      <point x="393" y="505"/>
      <point x="438" y="433"/>
      <point x="440" y="293" type="curve"/>
      <point x="468" y="311" type="line"/>
      <point x="112" y="311" type="line"/>
      <point x="113" y="266" type="line"/>
      <point x="535" y="266" type="line"/>
      <point x="534" y="452"/>
      <point x="451" y="550"/>
      <point x="302" y="550" type="curve"/>
      <point x="163" y="550"/>
      <point x="51" y="435"/>
      <point x="51" y="266" type="curve" smooth="yes"/>
      <point x="51" y="96"/>
      <point x="172" y="-12"/>
    </contour>
  </outline>
</glyph>
<glyph name="g" format="1">
  <advance width="616"/>
  <unicode hex="0067"/>
  <outline>
    <contour>
      <point x="283" y="-252" type="curve"/>
      <point x="320" y="-252" type="line"/>
      <point x="461" y="-252"/>
      <point x="583" y="-187"/>
      <point x="583" y="-68" type="curve" smooth="yes"/>
      <point x="583" y="20"/>
      <point x="521" y="63"/>
      <point x="405" y="63" type="curve" smooth="yes"/>
      <point x="223" y="63" type="line" smooth="yes"/>
      <point x="170" y="63"/>
      <point x="140" y="74"/>
      <point x="140" y="109" type="curve" smooth="yes"/>
      <point x="140" y="144"/>
      <point x="170" y="171"/>
      <point x="214" y="194" type="curve"/>
      <point x="232" y="218"/>
      <point x="192" y="237"/>
      <point x="176" y="211" type="curve"/>
      <point x="107" y="176"/>
      <point x="71" y="132"/>
      <point x="71" y="83" type="curve" smooth="yes"/>
      <point x="71" y="48"/>
      <point x="87" y="11"/>
      <point x="134" y="-11" type="curve"/>
      <point x="131" y="-17"/>
      <point x="124" y="-13"/>
      <point x="128" y="-23" type="curve"/>
      <point x="404" y="-23" type="line" smooth="yes"/>
      <point x="484" y="-23"/>
      <point x="507" y="-45"/>
      <point x="507" y="-89" type="curve" smooth="yes"/>
      <point x="507" y="-157"/>
      <point x="429" y="-207"/>
      <point x="319" y="-207" type="curve"/>
      <point x="284" y="-207" type="line"/>
      <point x="162" y="-207"/>
      <point x="106" y="-167"/>
      <point x="106" y="-110" type="curve" smooth="yes"/>
      <point x="106" y="-70"/>
      <point x="122" y="-34"/>
      <point x="171" y="-9" type="curve"/>
      <point x="147" y="12" type="line"/>
      <point x="71" y="-24"/>
      <point x="35" y="-61"/>
      <point x="35" y="-113" type="curve"/>
      <point x="35" y="-208"/>
      <point x="147" y="-252"/>
    </contour>
    <contour>
      <point x="180" y="357" type="curve" smooth="yes"/>
      <point x="180" y="450"/>
      <point x="227" y="506"/>
      <point x="298" y="506" type="curve" smooth="yes"/>
      <point x="370" y="506"/>
      <point x="417" y="450"/>
      <point x="417" y="357" type="curve" smooth="yes"/>
      <point x="417" y="264"/>
      <point x="369" y="212"/>
      <point x="298" y="212" type="curve" smooth="yes"/>
      <point x="226" y="212"/>
      <point x="180" y="264"/>
    </contour>
    <contour>
      <point x="298" y="168" type="curve" smooth="yes"/>
      <point x="417" y="168"/>
      <point x="507" y="242"/>
      <point x="507" y="357" type="curve" smooth="yes"/>
      <point x="507" y="472"/>
      <point x="417" y="550"/>
      <point x="298" y="550" type="curve" smooth="yes"/>
      <point x="179" y="550"/>
      <point x="90" y="472"/>
      <point x="90" y="357" type="curve" smooth="yes"/>
      <point x="90" y="242"/>
      <point x="178" y="168"/>
    </contour>
    <contour>
      <point x="430" y="457" type="curve"/>
      <point x="443" y="442" type="line"/>
      <point x="468" y="479"/>
      <point x="502" y="482"/>
      <point x="584" y="475" type="curve"/>
      <point x="584" y="553" type="line"/>
      <point x="519" y="558"/>
      <point x="469" y="524"/>
    </contour>
  </outline>
</glyph>
<glyph name="h" format="1">
  <advance width="671"/>
  <unicode hex="0068"/>
  <outline>
    <contour>
      <point x="44" y="0" type="line"/>
      <point x="295" y="0" type="line"/>
      <point x="295" y="33" type="line"/>
      <point x="295" y="33" type="line"/>
      <point x="267" y="33"/>
      <point x="218" y="36"/>
      <point x="218" y="43" type="curve"/>
      <point x="129" y="69" type="line"/>
      <point x="129" y="40"/>
      <point x="94" y="33"/>
      <point x="46" y="33" type="curve"/>
      <point x="44" y="33" type="line"/>
    </contour>
    <contour>
      <point x="392" y="0" type="line"/>
      <point x="643" y="0" type="line"/>
      <point x="643" y="33" type="line"/>
      <point x="642" y="33" type="line"/>
      <point x="594" y="33"/>
      <point x="559" y="40"/>
      <point x="559" y="69" type="curve"/>
      <point x="470" y="43" type="line"/>
      <point x="470" y="36"/>
      <point x="421" y="33"/>
      <point x="393" y="33" type="curve"/>
      <point x="392" y="33" type="line"/>
    </contour>
    <contour>
      <point x="379" y="500" type="curve" smooth="yes"/>
      <point x="448" y="500"/>
      <point x="470" y="466"/>
      <point x="470" y="383" type="curve" smooth="yes"/>
      <point x="470" y="0" type="line"/>
      <point x="559" y="0" type="line"/>
      <point x="559" y="389" type="line" smooth="yes"/>
      <point x="559" y="500"/>
      <point x="492" y="550"/>
      <point x="393" y="550" type="curve" smooth="yes"/>
      <point x="293" y="550"/>
      <point x="234" y="494"/>
      <point x="172" y="390" type="curve"/>
      <point x="194" y="366" type="line"/>
      <point x="243" y="454"/>
      <point x="304" y="500"/>
    </contour>
    <contour>
      <point x="44" y="750" type="line"/>
      <point x="44" y="715" type="line"/>
      <point x="55" y="713" type="line" smooth="yes"/>
      <point x="106" y="704"/>
      <point x="129" y="697"/>
      <point x="129" y="668" type="curve" smooth="yes"/>
      <point x="129" y="0" type="line"/>
      <point x="218" y="0" type="line"/>
      <point x="218" y="750" type="line"/>
    </contour>
  </outline>
</glyph>
<glyph name="j" format="1">
  <advance width="327"/>
  <unicode hex="006A"/>
  <outline>
    <contour>
      <point x="167" y="646" type="curve" smooth="yes"/>
      <point x="202" y="646"/>
      <point x="228" y="669"/>
      <point x="228" y="707" type="curve" smooth="yes"/>
      <point x="228" y="744"/>
      <point x="202" y="767"/>
      <point x="167" y="767" type="curve" smooth="yes"/>
      <point x="132" y="767"/>
      <point x="105" y="744"/>
      <point x="105" y="707" type="curve" smooth="yes"/>
      <point x="105" y="669"/>
      <point x="132" y="646"/>
    </contour>
    <contour>
      <point x="125" y="-45" type="line" smooth="yes"/>
      <point x="125" y="-150"/>
      <point x="86" y="-187"/>
      <point x="26" y="-187" type="curve" smooth="yes"/>
      <point x="3" y="-187"/>
      <point x="-16" y="-184"/>
      <point x="-33" y="-180" type="curve"/>
      <point x="-33" y="-230" type="line"/>
      <point x="-18" y="-233"/>
      <point x="6" y="-236"/>
      <point x="27" y="-236" type="curve" smooth="yes"/>
      <point x="116" y="-236"/>
      <point x="214" y="-194"/>
      <point x="214" y="-45" type="curve" smooth="yes"/>
      <point x="214" y="540" type="line"/>
      <point x="36" y="540" type="line"/>
      <point x="36" y="505" type="line"/>
      <point x="49" y="503" type="line" smooth="yes"/>
      <point x="100" y="495"/>
      <point x="125" y="487"/>
      <point x="125" y="458" type="curve" smooth="yes"/>
    </contour>
  </outline>
</glyph>
<glyph name="r" format="1">
  <advance width="418"/>
  <unicode hex="0072"/>
  <outline>
    <contour>
      <point x="397" y="548" type="line"/>
      <point x="390" y="550"/>
      <point x="379" y="551"/>
      <point x="366" y="551" type="curve" smooth="yes"/>
      <point x="292" y="551"/>
      <point x="238" y="491"/>
      <point x="198" y="390" type="curve"/>
      <point x="208" y="350" type="line"/>
      <point x="245" y="436"/>
      <point x="279" y="473"/>
      <point x="336" y="473" type="curve" smooth="yes"/>
      <point x="356" y="473"/>
      <point x="376" y="470"/>
      <point x="397" y="464" type="curve"/>
    </contour>
    <contour>
      <point x="45" y="0" type="line"/>
      <point x="312" y="0" type="line"/>
      <point x="312" y="33" type="line"/>
      <point x="298" y="33" type="line" smooth="yes"/>
      <point x="270" y="33"/>
      <point x="219" y="36"/>
      <point x="219" y="62" type="curve"/>
      <point x="130" y="69" type="line"/>
      <point x="130" y="40"/>
      <point x="94" y="33"/>
      <point x="47" y="33" type="curve"/>
      <point x="45" y="33" type="line"/>
    </contour>
    <contour>
      <point x="45" y="540" type="line"/>
      <point x="45" y="505" type="line"/>
      <point x="56" y="503" type="line" smooth="yes"/>
      <point x="106" y="494"/>
      <point x="130" y="487"/>
      <point x="130" y="458" type="curve" smooth="yes"/>
      <point x="130" y="0" type="line"/>
      <point x="219" y="0" type="line"/>
      <point x="219" y="400" type="line"/>
      <point x="211" y="392" type="line"/>
      <point x="211" y="540" type="line"/>
    </contour>
  </outline>
</glyph>
<glyph name="u" format="1">
  <advance width="653"/>
  <unicode hex="0075"/>
  <outline>
    <contour>
      <point x="114" y="458" type="line" smooth="yes"/>
      <point x="114" y="487"/>
      <point x="91" y="494"/>
      <point x="39" y="503" type="curve" smooth="yes"/>
      <point x="27" y="505" type="line"/>
      <point x="27" y="539" type="line"/>
      <point x="203" y="539" type="line"/>
      <point x="203" y="157" type="line" smooth="yes"/>
      <point x="203" y="73"/>
      <point x="225" y="38"/>
      <point x="294" y="38" type="curve" smooth="yes"/>
      <point x="367" y="38"/>
      <point x="426" y="85"/>
      <point x="475" y="174" type="curve"/>
      <point x="498" y="149" type="line"/>
      <point x="436" y="44"/>
      <point x="378" y="-11"/>
      <point x="279" y="-11" type="curve" smooth="yes"/>
      <point x="182" y="-11"/>
      <point x="114" y="39"/>
      <point x="114" y="150" type="curve"/>
    </contour>
    <contour>
      <point x="451" y="458" type="line" smooth="yes"/>
      <point x="451" y="487"/>
      <point x="427" y="498"/>
      <point x="375" y="503" type="curve" smooth="yes"/>
      <point x="353" y="505" type="line"/>
      <point x="353" y="539" type="line"/>
      <point x="540" y="539" type="line"/>
      <point x="540" y="69" type="line"/>
      <point x="540" y="40"/>
      <point x="574" y="33"/>
      <point x="623" y="33" type="curve"/>
      <point x="626" y="33" type="line"/>
      <point x="626" y="0" type="line"/>
      <point x="459" y="0" type="line"/>
      <point x="459" y="102" type="line"/>
      <point x="451" y="115" type="line"/>
    </contour>
  </outline>
</glyph>
<glyph name="v" format="1">
  <advance width="595"/>
  <unicode hex="0076"/>
  <outline>
    <contour>
      <point x="245" y="540" type="line"/>
      <point x="13" y="540" type="line"/>
      <point x="13" y="507" type="line"/>
      <point x="14" y="507" type="line"/>
      <point x="46" y="507"/>
      <point x="69" y="500"/>
      <point x="80" y="471" type="curve"/>
      <point x="159" y="497" type="line"/>
      <point x="159" y="504"/>
      <point x="207" y="507"/>
      <point x="244" y="507" type="curve"/>
      <point x="245" y="507" type="line"/>
    </contour>
    <contour>
      <point x="317" y="0" type="line"/>
      <point x="331" y="36" type="line"/>
      <point x="143" y="540" type="line"/>
      <point x="54" y="540" type="line"/>
      <point x="261" y="0" type="line"/>
    </contour>
    <contour>
      <point x="337" y="0" type="line"/>
      <point x="542" y="540" type="line"/>
      <point x="488" y="540" type="line"/>
      <point x="297" y="30" type="line"/>
      <point x="306" y="0" type="line"/>
    </contour>
    <contour>
      <point x="385" y="540" type="line"/>
      <point x="385" y="507" type="line"/>
      <point x="386" y="507" type="line"/>
      <point x="423" y="507"/>
      <point x="467" y="499"/>
      <point x="467" y="486" type="curve"/>
      <point x="512" y="460" type="line"/>
      <point x="525" y="495"/>
      <point x="551" y="507"/>
      <point x="581" y="507" type="curve"/>
      <point x="582" y="507" type="line"/>
      <point x="582" y="540" type="line"/>
    </contour>
  </outline>
</glyph>
<glyph name="y" format="1">
  <advance width="603"/>
  <unicode hex="0079"/>
  <outline>
    <contour>
      <point x="330" y="14" type="line"/>
      <point x="345" y="52" type="line"/>
      <point x="150" y="528" type="line"/>
      <point x="60" y="526" type="line"/>
      <point x="292" y="-24" type="line"/>
    </contour>
    <contour>
      <point x="348" y="17" type="curve" smooth="yes"/>
      <point x="546" y="526" type="line"/>
      <point x="490" y="528" type="line"/>
      <point x="315" y="72" type="line"/>
      <point x="305" y="48" type="line" smooth="yes"/>
      <point x="235" y="-135"/>
      <point x="182" y="-151"/>
      <point x="48" y="-149" type="curve"/>
      <point x="48" y="-232" type="line"/>
      <point x="214" y="-233"/>
      <point x="280" y="-158"/>
    </contour>
    <contour>
      <point x="249" y="540" type="line"/>
      <point x="12" y="540" type="line"/>
      <point x="12" y="507" type="line"/>
      <point x="13" y="507" type="line"/>
      <point x="49" y="507"/>
      <point x="72" y="500"/>
      <point x="83" y="471" type="curve"/>
      <point x="162" y="497" type="line"/>
      <point x="162" y="504"/>
      <point x="211" y="507"/>
      <point x="247" y="507" type="curve"/>
      <point x="249" y="507" type="line"/>
    </contour>
    <contour>
      <point x="391" y="540" type="line"/>
      <point x="391" y="507" type="line"/>
      <point x="392" y="507" type="line"/>
      <point x="429" y="507"/>
      <point x="473" y="497"/>
      <point x="473" y="482" type="curve"/>
      <point x="519" y="458" type="line"/>
      <point x="534" y="495"/>
      <point x="558" y="507"/>
      <point x="589" y="507" type="curve"/>
      <point x="590" y="507" type="line"/>
      <point x="590" y="540" type="line"/>
    </contour>
  </outline>
</glyph>
<glyph name="F.alt" format="1">
  <advance width="606"/>
  <outline>
    <contour>
      <point x="141" y="0" type="line"/>
      <point x="234" y="0" type="line"/>
      <point x="234" y="710" type="line"/>
      <point x="141" y="710" type="line"/>
    </contour>
    <contour>
      <point x="50" y="710" type="line"/>
      <point x="50" y="676" type="line"/>
      <point x="58" y="676" type="line" smooth="yes"/>
      <point x="103" y="676"/>
      <point x="141" y="669"/>
      <point x="141" y="640" type="curve"/>
      <point x="201" y="666" type="line"/>
      <point x="377" y="666" type="line" smooth="yes"/>
      <point x="463" y="666"/>
      <point x="496" y="655"/>
      <point x="503" y="616" type="curve" smooth="yes"/>
      <point x="516" y="525" type="line"/>
      <point x="557" y="525" type="line"/>
      <point x="557" y="710" type="line"/>
    </contour>
    <contour>
      <point x="50" y="0" type="line"/>
      <point x="340" y="0" type="line"/>
      <point x="340" y="34" type="line"/>
      <point x="323" y="34" type="line" smooth="yes"/>
      <point x="283" y="34"/>
      <point x="234" y="37"/>
      <point x="234" y="64" type="curve"/>
      <point x="141" y="70" type="line"/>
      <point x="141" y="41"/>
      <point x="104" y="34"/>
      <point x="58" y="34" type="curve" smooth="yes"/>
      <point x="50" y="34" type="line"/>
    </contour>
    <contour>
      <point x="204" y="375" type="line"/>
      <point x="204" y="331" type="line"/>
      <point x="441" y="331" type="line"/>
      <point x="441" y="375" type="line"/>
    </contour>
    <contour>
      <point x="463" y="260" type="line"/>
      <point x="463" y="447" type="line"/>
      <point x="428" y="447" type="line"/>
      <point x="428" y="441" type="line"/>
      <point x="428" y="406"/>
      <point x="418" y="375"/>
      <point x="389" y="375" type="curve"/>
      <point x="389" y="331" type="line"/>
      <point x="418" y="331"/>
      <point x="428" y="300"/>
      <point x="428" y="266" type="curve"/>
      <point x="428" y="260" type="line"/>
    </contour>
  </outline>
</glyph>
<glyph name="J.alt" format="1">
  <advance width="621"/>
  <outline>
    <contour>
      <point x="473" y="640" type="line"/>
      <point x="473" y="669"/>
      <point x="510" y="676"/>
      <point x="555" y="676" type="curve" smooth="yes"/>
      <point x="563" y="676" type="line"/>
      <point x="563" y="710" type="line"/>
      <point x="276" y="710" type="line"/>
      <point x="276" y="676" type="line"/>
      <point x="295" y="676" type="line" smooth="yes"/>
      <point x="343" y="676"/>
      <point x="380" y="669"/>
      <point x="380" y="640" type="curve"/>
    </contour>
    <contour>
      <point x="238" y="35" type="curve"/>
      <point x="174" y="35"/>
      <point x="131" y="59"/>
      <point x="115" y="91" type="curve"/>
      <point x="82" y="137"/>
      <point x="85" y="66"/>
      <point x="134" y="52" type="curve"/>
      <point x="134" y="160" type="line"/>
      <point x="41" y="162" type="line"/>
      <point x="41" y="63" type="line"/>
      <point x="77" y="24"/>
      <point x="149" y="-10"/>
      <point x="238" y="-10" type="curve"/>
      <point x="382" y="-10"/>
      <point x="473" y="58"/>
      <point x="473" y="244" type="curve" smooth="yes"/>
      <point x="473" y="710" type="line"/>
      <point x="380" y="710" type="line"/>
      <point x="380" y="244" type="line" smooth="yes"/>
      <point x="380" y="80"/>
      <point x="331" y="35"/>
    </contour>
  </outline>
</glyph>
<glyph name="Q.alt" format="1">
  <advance width="797"/>
  <outline>
    <contour>
      <point x="410" y="216" type="line"/>
      <point x="504" y="71"/>
      <point x="574" y="-44"/>
      <point x="816" y="-50" type="curve"/>
      <point x="816" y="29" type="line"/>
      <point x="592" y="30"/>
      <point x="538" y="101"/>
      <point x="449" y="240" type="curve"/>
    </contour>
    <contour>
      <point x="398" y="-10" type="curve" smooth="yes"/>
      <point x="593" y="-10"/>
      <point x="748" y="139"/>
      <point x="748" y="355" type="curve" smooth="yes"/>
      <point x="748" y="572"/>
      <point x="593" y="720"/>
      <point x="398" y="720" type="curve" smooth="yes"/>
      <point x="203" y="720"/>
      <point x="49" y="572"/>
      <point x="49" y="355" type="curve" smooth="yes"/>
      <point x="49" y="139"/>
      <point x="203" y="-10"/>
    </contour>
    <contour>
      <point x="398" y="35" type="curve" smooth="yes"/>
      <point x="253" y="35"/>
      <point x="148" y="159"/>
      <point x="148" y="355" type="curve" smooth="yes"/>
      <point x="148" y="551"/>
      <point x="253" y="675"/>
      <point x="398" y="675" type="curve" smooth="yes"/>
      <point x="544" y="675"/>
      <point x="649" y="551"/>
      <point x="649" y="355" type="curve" smooth="yes"/>
      <point x="649" y="147"/>
      <point x="544" y="35"/>
    </contour>
  </outline>
</glyph>
<glyph name="Q.alt4" format="1">
  <advance width="797"/>
  <outline>
    <contour>
      <point x="398" y="-10" type="curve" smooth="yes"/>
      <point x="593" y="-10"/>
      <point x="748" y="139"/>
      <point x="748" y="355" type="curve" smooth="yes"/>
      <point x="748" y="572"/>
      <point x="593" y="720"/>
      <point x="398" y="720" type="curve" smooth="yes"/>
      <point x="203" y="720"/>
      <point x="49" y="572"/>
      <point x="49" y="355" type="curve" smooth="yes"/>
      <point x="49" y="139"/>
      <point x="203" y="-10"/>
    </contour>
    <contour>
      <point x="398" y="35" type="curve" smooth="yes"/>
      <point x="253" y="35"/>
      <point x="148" y="159"/>
      <point x="148" y="355" type="curve" smooth="yes"/>
      <point x="148" y="551"/>
      <point x="253" y="675"/>
      <point x="398" y="675" type="curve" smooth="yes"/>
      <point x="544" y="675"/>
      <point x="649" y="551"/>
      <point x="649" y="355" type="curve" smooth="yes"/>
      <point x="649" y="159"/>
      <point x="544" y="35"/>
    </contour>
    <contour>
      <point x="375" y="-7" type="line"/>
      <point x="367" y="-129"/>
      <point x="458" y="-184"/>
      <point x="577" y="-184" type="curve" smooth="yes"/>
      <point x="623" y="-184"/>
      <point x="674" y="-177"/>
      <point x="721" y="-167" type="curve"/>
      <point x="721" y="-77" type="line"/>
      <point x="670" y="-93"/>
      <point x="630" y="-108"/>
      <point x="564" y="-108" type="curve" smooth="yes"/>
      <point x="478" y="-108"/>
      <point x="417" y="-80"/>
      <point x="423" y="10" type="curve"/>
    </contour>
  </outline>
</glyph>
<glyph name="f.alt" format="1">
  <advance width="407"/>
  <outline>
    <contour>
      <point x="47" y="33" type="line"/>
      <point x="47" y="0" type="line"/>
      <point x="346" y="0" type="line"/>
      <point x="346" y="33" type="line"/>
      <point x="334" y="33" type="line" smooth="yes"/>
      <point x="277" y="33"/>
      <point x="234" y="40"/>
      <point x="234" y="55" type="curve"/>
      <point x="145" y="69" type="line"/>
      <point x="145" y="40"/>
      <point x="109" y="33"/>
      <point x="58" y="33" type="curve"/>
    </contour>
    <contour>
      <point x="47" y="540" type="line"/>
      <point x="47" y="497" type="line"/>
      <point x="379" y="497" type="line"/>
      <point x="379" y="540" type="line"/>
    </contour>
    <contour>
      <point x="234" y="596" type="line" smooth="yes"/>
      <point x="234" y="690"/>
      <point x="275" y="721"/>
      <point x="336" y="721" type="curve" smooth="yes"/>
      <point x="365" y="721"/>
      <point x="389" y="717"/>
      <point x="409" y="713" type="curve"/>
      <point x="409" y="764" type="line"/>
      <point x="391" y="768"/>
      <point x="362" y="771"/>
      <point x="335" y="771" type="curve" smooth="yes"/>
      <point x="243" y="771"/>
      <point x="145" y="733"/>
      <point x="145" y="596" type="curve"/>
      <point x="145" y="2" type="line"/>
      <point x="234" y="2" type="line"/>
    </contour>
  </outline>
</glyph>
<glyph name="five.old" format="1">
  <advance width="598"/>
  <outline>
    <contour>
      <point x="147" y="225" type="line"/>
      <point x="198" y="477" type="line"/>
      <point x="176" y="454" type="line"/>
      <point x="512" y="454" type="line"/>
      <point x="512" y="528" type="line"/>
      <point x="159" y="528" type="line"/>
      <point x="97" y="225" type="line"/>
      <point x="97" y="196" type="line"/>
      <point x="216" y="196" type="line" smooth="yes"/>
      <point x="382" y="196"/>
      <point x="460" y="147"/>
      <point x="460" y="25" type="curve" smooth="yes"/>
      <point x="460" y="-92"/>
      <point x="393" y="-145"/>
      <point x="310" y="-145" type="curve" smooth="yes"/>
      <point x="218" y="-145"/>
      <point x="157" y="-97"/>
      <point x="145" y="23" type="curve"/>
      <point x="47" y="23" type="line"/>
      <point x="63" y="-121"/>
      <point x="166" y="-192"/>
      <point x="310" y="-192" type="curve" smooth="yes"/>
      <point x="442" y="-192"/>
      <point x="555" y="-116"/>
      <point x="555" y="25" type="curve" smooth="yes"/>
      <point x="555" y="161"/>
      <point x="451" y="244"/>
      <point x="234" y="244" type="curve" smooth="yes"/>
      <point x="122" y="244" type="line"/>
    </contour>
  </outline>
</glyph>
<glyph name="j.alt" format="1">
  <advance width="330"/>
  <outline>
    <contour>
      <point x="170" y="646" type="curve" smooth="yes"/>
      <point x="205" y="646"/>
      <point x="231" y="669"/>
      <point x="231" y="707" type="curve" smooth="yes"/>
      <point x="231" y="744"/>
      <point x="205" y="767"/>
      <point x="170" y="767" type="curve" smooth="yes"/>
      <point x="135" y="767"/>
      <point x="109" y="744"/>
      <point x="109" y="707" type="curve" smooth="yes"/>
      <point x="109" y="669"/>
      <point x="135" y="646"/>
    </contour>
    <contour>
      <point x="218" y="540" type="line"/>
      <point x="39" y="540" type="line"/>
      <point x="39" y="505" type="line"/>
      <point x="52" y="503" type="line" smooth="yes"/>
      <point x="104" y="495"/>
      <point x="129" y="487"/>
      <point x="129" y="458" type="curve" smooth="yes"/>
      <point x="129" y="-38" type="line" smooth="yes"/>
      <point x="129" y="-144"/>
      <point x="96" y="-190"/>
      <point x="26" y="-190" type="curve" smooth="yes"/>
      <point x="-17" y="-190"/>
      <point x="-53" y="-174"/>
      <point x="-72" y="-139" type="curve"/>
      <point x="-89" y="-155"/>
      <point x="-70" y="-183"/>
      <point x="-41" y="-182" type="curve"/>
      <point x="-41" y="-95" type="line"/>
      <point x="-122" y="-95" type="line"/>
      <point x="-122" y="-173" type="line"/>
      <point x="-100" y="-202"/>
      <point x="-45" y="-231"/>
      <point x="26" y="-231" type="curve" smooth="yes"/>
      <point x="138" y="-231"/>
      <point x="218" y="-164"/>
      <point x="218" y="-38" type="curve" smooth="yes"/>
    </contour>
  </outline>
</glyph>
<glyph name="s.srf" format="1">
  <advance width="502"/>
  <outline>
    <contour>
      <point x="274" y="-10" type="curve"/>
      <point x="387" y="-10"/>
      <point x="461" y="53"/>
      <point x="461" y="151" type="curve" smooth="yes"/>
      <point x="461" y="263"/>
      <point x="375" y="291"/>
      <point x="288" y="313" type="curve" smooth="yes"/>
      <point x="207" y="333"/>
      <point x="135" y="344"/>
      <point x="135" y="416" type="curve" smooth="yes"/>
      <point x="135" y="470"/>
      <point x="168" y="508"/>
      <point x="239" y="508" type="curve" smooth="yes"/>
      <point x="303" y="508"/>
      <point x="356" y="468"/>
      <point x="380" y="399" type="curve"/>
      <point x="433" y="399" type="line"/>
      <point x="433" y="547" type="line"/>
      <point x="390" y="547" type="line"/>
      <point x="377" y="463" type="line"/>
      <point x="379" y="458"/>
      <point x="403" y="431"/>
      <point x="408" y="429" type="curve"/>
      <point x="392" y="498"/>
      <point x="324" y="555"/>
      <point x="234" y="555" type="curve" smooth="yes"/>
      <point x="132" y="555"/>
      <point x="59" y="492"/>
      <point x="59" y="401" type="curve" smooth="yes"/>
      <point x="59" y="292"/>
      <point x="149" y="263"/>
      <point x="236" y="242" type="curve" smooth="yes"/>
      <point x="314" y="222"/>
      <point x="381" y="205"/>
      <point x="381" y="134" type="curve" smooth="yes"/>
      <point x="381" y="69"/>
      <point x="336" y="37"/>
      <point x="268" y="37" type="curve" smooth="yes"/>
      <point x="180" y="37"/>
      <point x="120" y="86"/>
      <point x="95" y="175" type="curve"/>
      <point x="41" y="175" type="line"/>
      <point x="41" y="0" type="line"/>
      <point x="87" y="0" type="line"/>
      <point x="97" y="114" type="line"/>
      <point x="95" y="117"/>
      <point x="66" y="142"/>
      <point x="62" y="141" type="curve"/>
      <point x="96" y="28"/>
      <point x="190" y="-10"/>
    </contour>
  </outline>
</glyph>
<glyph name="seven.alt2" format="1">
  <advance width="565"/>
  <outline>
    <contour>
      <point x="213" y="0" type="line"/>
      <point x="207" y="376"/>
      <point x="474" y="411"/>
      <point x="474" y="636" type="curve" smooth="yes"/>
      <point x="474" y="677" type="line"/>
      <point x="495" y="636" type="line"/>
      <point x="115" y="636" type="line"/>
      <point x="115" y="636" type="line"/>
      <point x="115" y="504" type="line"/>
      <point x="66" y="504" type="line"/>
      <point x="66" y="710" type="line"/>
      <point x="525" y="710" type="line"/>
      <point x="525" y="658" type="line" smooth="yes"/>
      <point x="525" y="392"/>
      <point x="301" y="383"/>
      <point x="311" y="0" type="curve"/>
    </contour>
  </outline>
</glyph>
<glyph name="three.old" format="1">
  <advance width="612"/>
  <outline>
    <contour>
      <point x="332" y="196" type="line"/>
      <point x="469" y="196"/>
      <point x="559" y="133"/>
      <point x="559" y="18" type="curve" smooth="yes"/>
      <point x="559" y="-123"/>
      <point x="445" y="-193"/>
      <point x="310" y="-193" type="curve" smooth="yes"/>
      <point x="169" y="-193"/>
      <point x="66" y="-122"/>
      <point x="49" y="22" type="curve"/>
      <point x="147" y="22" type="line"/>
      <point x="159" y="-97"/>
      <point x="219" y="-146"/>
      <point x="310" y="-146" type="curve" smooth="yes"/>
      <point x="395" y="-146"/>
      <point x="464" y="-99"/>
      <point x="464" y="18" type="curve" smooth="yes"/>
      <point x="464" y="133"/>
      <point x="401" y="165"/>
      <point x="302" y="165" type="curve" smooth="yes"/>
      <point x="220" y="165" type="line"/>
      <point x="220" y="208" type="line"/>
      <point x="291" y="208" type="line" smooth="yes"/>
      <point x="383" y="208"/>
      <point x="433" y="264"/>
      <point x="433" y="357" type="curve" smooth="yes"/>
      <point x="433" y="445"/>
      <point x="393" y="490"/>
      <point x="318" y="490" type="curve" smooth="yes"/>
      <point x="234" y="490"/>
      <point x="190" y="431"/>
      <point x="178" y="330" type="curve"/>
      <point x="82" y="330" type="line"/>
      <point x="98" y="457"/>
      <point x="188" y="537"/>
      <point x="318" y="537" type="curve" smooth="yes"/>
      <point x="446" y="537"/>
      <point x="523" y="467"/>
      <point x="523" y="358" type="curve" smooth="yes"/>
      <point x="523" y="254"/>
      <point x="440" y="188"/>
      <point x="310" y="188" type="curve"/>
    </contour>
  </outline>
</glyph>
